<?xml version="1.0" standalone="no"?>
<!DOCTYPE svg PUBLIC "-//W3C//DTD SVG 20010904//EN"
 "http://www.w3.org/TR/2001/REC-SVG-20010904/DTD/svg10.dtd">
<svg version="1.0" xmlns="http://www.w3.org/2000/svg"
 width="537.000000pt" height="597.000000pt" viewBox="0 0 537.000000 597.000000"
 preserveAspectRatio="xMidYMid meet">
<metadata>
Created by potrace 1.15, written by Peter Selinger 2001-2017
</metadata>
<g transform="translate(0.000000,597.000000) scale(0.100000,-0.100000)"
fill="#000000" stroke="none">
<path d="M2380 5541 c-197 -32 -414 -117 -590 -233 -315 -208 -541 -460 -629
-702 -42 -118 -54 -192 -53 -346 1 -157 21 -241 75 -312 41 -55 88 -78 155
-78 86 0 154 45 187 122 26 64 19 118 -34 256 -60 155 -75 231 -66 335 9 104
27 172 70 259 167 337 569 584 987 605 214 11 391 -27 593 -127 148 -74 261
-157 385 -286 196 -202 327 -423 425 -717 121 -365 134 -789 33 -1132 -43
-147 -74 -226 -139 -356 -215 -424 -554 -703 -961 -791 -143 -30 -388 -31
-533 0 -122 25 -175 46 -175 70 0 9 -5 55 -10 102 -31 269 -32 1049 0 1430 33
406 93 876 144 1127 l24 114 -25 10 c-13 5 -29 9 -34 9 -5 0 -26 -35 -46 -77
-163 -354 -281 -793 -352 -1313 -47 -340 -67 -616 -73 -1012 -2 -87 -4 -158
-6 -158 -2 0 -44 37 -93 82 -121 111 -185 150 -254 156 -65 5 -100 -13 -121
-63 -18 -44 -18 -116 1 -160 17 -43 104 -136 164 -178 51 -35 219 -119 274
-136 l37 -13 0 -63 c0 -129 31 -445 61 -625 84 -499 217 -762 443 -875 65 -33
91 -40 151 -43 65 -4 75 -2 95 18 20 20 22 30 17 79 -3 31 -20 92 -38 136 -36
92 -114 320 -152 445 -65 215 -154 605 -172 753 -8 67 -18 63 126 40 161 -26
438 -23 604 6 411 73 754 253 1027 539 375 396 567 955 518 1512 -51 590 -324
1054 -791 1348 -162 102 -413 197 -618 234 -168 30 -474 34 -631 9z"/>
</g>
</svg>
